# xmcd
#
# Track frame offsets:
#	150
#	18508
#	34921
#	54292
#	72774
#	89374
#	105694
#	125065
#	144453
#	161183
#	179521
#	196979
#	215297
#	230823
#	247153
#	262783
#	278542
#
# Disc length: 4004 seconds
#
# Revision: 1
# Processed by: cddbd v1.5.2PL0 Copyright (c) Steve Scherf et al.
# Submitted via: audiograbber 1.83.01
#
DISCID=f80fa211
DTITLE=Chartbuster - ESP492-02
DYEAR=2008
DGENRE=CD+G
TTITLE0=Craig Morgan - International Harvester
TTITLE1=Brooks and Dunn - Put A Girl In It
TTITLE2=Carrie Underwood - Last Name
TTITLE3=Tracy Lawrence - Til I Was A Daddy Too
TTITLE4=Gary Allan - Learning How To Bend
TTITLE5=Tim McGraw - Kristofferson
TTITLE6=Trisha Yearwood - This Is Me You're Talking To
TTITLE7=Montgomery Gentry - Back When I Knew It All
TTITLE8=Chuck Wicks - All I Ever Wanted
TTITLE9=Sara Evans - Some Things Never Change
TTITLE10=Keith Anderson - I Still Miss You
TTITLE11=Blake Shelton - Home
TTITLE12=Ashton Shepherd - Takin' Off This Pain
TTITLE13=Jason Michael Carroll - I Can Sleep When I'm Dead
TTITLE14=Trace Adkins - I Got My Game On
TTITLE15=Jake Owen - Something About A Woman
TTITLE16=Dolly Parton - Jesus and Gravity
EXTD=
EXTT0=
EXTT1=
EXTT2=
EXTT3=
EXTT4=
EXTT5=
EXTT6=
EXTT7=
EXTT8=
EXTT9=
EXTT10=
EXTT11=
EXTT12=
EXTT13=
EXTT14=
EXTT15=
EXTT16=
PLAYORDER=
